<?xml version="1.0" encoding="UTF-8" standalone="no"?>
<svg
   width="16"
   height="5"
   viewBox="0 0 4.2333332 1.3229167"
   version="1.1"
   id="svg8"
   xmlns="http://www.w3.org/2000/svg"
   xmlns:svg="http://www.w3.org/2000/svg"
   xmlns:rdf="http://www.w3.org/1999/02/22-rdf-syntax-ns#"
   xmlns:cc="http://creativecommons.org/ns#"
   xmlns:dc="http://purl.org/dc/elements/1.1/">
  <defs
     id="defs2" />
  <metadata
     id="metadata5">
    <rdf:RDF>
      <cc:Work
         rdf:about="">
        <dc:format>image/svg+xml</dc:format>
        <dc:type
           rdf:resource="http://purl.org/dc/dcmitype/StillImage" />
        <dc:title />
      </cc:Work>
    </rdf:RDF>
  </metadata>
  <g
     id="layer1">
    <path
       id="rect835"
       style="fill:#ff0000;fill-opacity:1;stroke:none;stroke-width:0.102047;stroke-linecap:round;stroke-linejoin:round;stroke-miterlimit:4;stroke-dasharray:0.102047, 0.204094;stroke-dashoffset:0"
       d="M 4,0 V 1 H 5 V 0 Z M 0,1 V 2 3 4 5 H 1 V 4 H 2 V 5 H 3 V 1 H 1 Z M 1,2 H 2 V 3 H 1 Z M 4,2 V 5 H 5 V 2 Z M 6,2 V 3 5 H 7 V 3 H 8 V 2 H 7 Z"
       transform="scale(0.26458333)" />
    <path
       id="rect851"
       style="fill:#646464;fill-opacity:1;stroke:none;stroke-width:0.102047;stroke-linecap:round;stroke-linejoin:round;stroke-miterlimit:4;stroke-dasharray:0.102047, 0.204094;stroke-dashoffset:0"
       d="m 9,0 v 1 4 h 1 2 V 4 H 10 V 1 h 2 V 0 h -2 z m 4,0 v 1 2 h 1 1 v 1 h -2 v 1 h 2 1 V 4 2 H 14 V 1 h 2 V 0 Z"
       transform="scale(0.26458333)" />
  </g>
</svg>
